<svg width="94" height="61" viewBox="0 0 94 61" fill="none" xmlns="http://www.w3.org/2000/svg">
<path d="M93.1907 33.4813C89.9641 32.7819 86.808 31.7901 83.7613 30.5182C82.8051 30.1546 81.9118 29.6432 81.114 29.0027C79.0516 27.3032 76.9542 25.6378 74.8618 23.9713C73.0373 22.5177 71.1628 21.1302 69.3803 19.6226C66.5871 17.2554 63.7239 15.0181 60.2169 13.7885C58.6073 13.2237 56.9958 12.6528 55.3572 12.181C50.8307 11.011 46.1545 10.5247 41.4841 10.7384C33.6801 10.7926 26.0916 13.3041 19.7961 17.9162C17.3578 19.6826 15.0205 21.602 12.7441 23.5754C9.17697 26.6624 5.43047 29.5358 1.52422 32.1807C1.29571 32.3424 1.08994 32.5341 0.912386 32.7505C0.791488 33.1137 0.594109 33.4468 0.333553 33.7272C0.30856 33.7532 0.287566 33.7802 0.264572 33.8062C0.190922 33.9897 0.137622 34.1808 0.10562 34.376C0.133187 34.6069 0.131159 34.8404 0.0996094 35.0708C0.182825 35.5239 0.394227 35.9437 0.708738 36.2803C1.02325 36.617 1.42769 36.8564 1.87412 36.9702C2.31404 37.077 2.76008 37.1568 3.20975 37.2091C3.94069 37.2693 4.66025 37.4274 5.34915 37.679C7.10539 38.4878 8.7825 39.4583 10.3588 40.578C12.136 41.9001 13.9993 43.1024 15.9362 44.1769C18.9536 46.0038 22.2102 47.4027 25.6125 48.3336C28.6337 49.1184 31.5748 50.233 34.67 50.7328C37.2316 51.2868 39.8562 51.4929 42.4728 51.3457C43.7724 51.2057 45.0721 51.0338 46.3717 50.9298C48.805 50.6828 51.1982 50.1351 53.4967 49.2993C53.6439 49.2222 53.7787 49.1234 53.8966 49.0064C52.2971 49.1643 50.8205 49.5712 49.3199 49.8511C45.2303 50.616 41.0477 50.7508 36.9174 50.251C31.069 49.639 25.4121 47.817 20.306 44.9007C15.8912 42.3085 11.5434 39.6024 7.17164 36.9342C7.04868 36.8592 6.98669 36.6843 6.87172 36.5233C7.82042 35.0925 8.22706 33.3699 8.01841 31.6658C13.5679 28.4219 25.2766 22.2978 26.3933 22.0849C26.3041 22.4181 26.1929 22.7451 26.0604 23.0636C25.5013 24.2568 25.2883 25.583 25.4456 26.8914C25.5122 27.6278 25.5745 28.3652 25.6325 29.1037C25.8926 31.4935 26.8259 33.7603 28.3238 35.6406C30.5639 38.5399 33.5204 40.8059 36.9024 42.2155C40.3666 43.8852 44.2759 44.3969 48.0533 43.6751C51.9493 42.9654 55.4865 40.947 58.0795 37.9539C60.7457 34.9208 61.6785 31.28 62.0943 27.4512C62.1831 25.8639 62.1714 24.2725 62.0594 22.6867C62.0534 22.3788 61.9974 22.0719 61.9414 21.547C69.1504 25.0474 76.1593 28.9459 82.9355 33.2244C82.836 33.4658 82.7142 33.6974 82.5716 33.9161C80.8381 36.251 78.6904 38.2475 76.2354 39.8063C76.0757 39.928 75.9372 40.0753 75.8255 40.2422C76.7685 40.1123 77.6494 39.698 78.3508 39.0545C80.5692 37.494 82.9105 36.0555 84.3791 33.6562C86.0627 34.0481 87.5113 35.1168 89.2218 34.8209C90.7364 34.5599 92.5069 35.4207 93.8855 33.8212C93.6663 33.684 93.4335 33.5701 93.1907 33.4813ZM6.06995 36.4663C5.08722 36.2604 4.19547 36.1374 3.34471 35.8795C2.42496 35.6006 2.16305 35.1967 2.18904 34.449C2.16966 34.1064 2.27082 33.7679 2.47499 33.4922C2.67915 33.2164 2.97342 33.0209 3.30672 32.9394C4.49539 32.6126 5.69405 32.3226 7.03068 31.9807C7.1808 33.5392 6.84522 35.106 6.06995 36.4663ZM23.687 18.7389C21.2651 20.0972 19.0275 21.7606 17.0289 23.6884C15.9173 24.6523 14.7272 25.5217 13.4709 26.2876C13.2966 26.3855 13.1127 26.4652 12.922 26.5255C16.2631 23.1885 19.7791 20.1395 24.2119 18.3101C24.0485 18.4666 23.873 18.61 23.687 18.7389ZM49.8597 13.8855C43.5002 13.5623 37.1262 14.1078 30.914 15.5069C36.9564 13.2189 43.5164 12.6574 49.8597 13.8855ZM58.8912 33.5513C57.8512 35.6886 56.3329 37.5579 54.4541 39.0141C52.5754 40.4703 50.3866 41.4744 48.0573 41.9486C44.1383 42.8903 40.4884 41.9866 36.9783 40.2741C34.0047 38.9326 31.4467 36.816 29.5724 34.1461C28.4768 32.5453 27.7497 30.7216 27.4433 28.8061C27.137 26.8907 27.2591 24.9312 27.8009 23.0686C27.8737 22.7322 28.0069 22.4118 28.1938 22.1229V24.0223C29.2835 22.8376 28.7106 21.1092 30.1982 19.9395C29.7744 21.792 29.3475 23.3305 29.8423 25.1499C29.9793 24.6241 30.0833 24.2962 30.1482 23.9603C30.3782 22.7896 30.5711 21.612 30.8291 20.4464C30.922 20.0215 31.099 19.5597 31.8668 19.6886C31.013 22.0119 30.5831 24.3452 31.6538 26.7244C31.6116 26.0631 31.617 25.3996 31.6698 24.739C31.9008 23.1685 32.1917 21.607 32.5066 20.0515C32.5119 19.9214 32.545 19.7939 32.6036 19.6776C32.6621 19.5613 32.7448 19.4588 32.8462 19.377C32.9476 19.2953 33.0652 19.2361 33.1913 19.2034C33.3174 19.1708 33.449 19.1655 33.5773 19.1878C33.3593 19.8396 33.1154 20.4334 32.9685 21.0512C32.8089 21.712 32.7033 22.3847 32.6525 23.0626C32.4825 23.7268 32.5174 24.4269 32.7525 25.0709C33.5133 24.756 33.4583 24.1562 33.5583 23.5494C33.6961 26.405 34.8543 29.1163 36.8224 31.19C37.9564 32.3692 39.3918 33.2152 40.9727 33.6362C42.5536 34.0573 44.2196 34.0372 45.7899 33.5783C51.2574 32.2977 52.717 28.164 52.8029 23.7813C52.8389 21.9899 51.8372 20.4224 50.9475 18.8939C50.8209 18.7022 50.683 18.5183 50.5345 18.343C52.0921 17.9792 52.476 18.1171 53.1808 19.2598C53.9844 20.51 54.4906 21.9279 54.6604 23.4045C54.7044 23.8353 54.8274 24.2582 54.9803 25.004C55.3222 22.8146 55.2883 22.6507 53.7447 18.606L55.3672 19.0058C55.5992 19.8916 55.7981 20.6483 55.996 21.4051L56.278 21.3641C56.221 20.7403 56.165 20.1175 56.102 19.4157C56.6658 19.3267 56.7528 19.7366 56.8408 20.0985C57.4406 22.5977 57.9405 25.1059 57.2907 27.6841C57.1774 28.1129 57.1435 28.5587 57.1907 28.9997C58.7533 26.1426 58.3844 23.1785 57.6336 20.1835C59.4841 23.2555 59.2561 26.5815 58.8193 29.9544C59.7332 28.5669 60.15 26.9107 60.0019 25.2559C59.845 23.6964 59.4361 22.1629 59.1022 20.4234C59.3623 20.5929 59.6001 20.7944 59.81 21.0232C60.3774 21.8845 60.7017 22.883 60.7487 23.9133C60.9488 27.231 60.31 30.5456 58.8912 33.5513Z" fill="black"/>
<path d="M63.4357 49.5551C63.1448 49.714 62.8588 49.8839 62.5619 50.0319C58.1304 52.2595 53.3516 53.7156 48.4309 54.3376C43.1648 54.9555 37.8316 54.6596 32.6662 53.4628C26.796 52.2583 21.1768 50.0525 16.0549 46.9419C13.5506 45.3549 10.663 44.4767 7.6992 44.4007C5.80271 44.3168 3.9884 43.6027 2.54364 42.3713C1.74386 41.7175 1.68687 41.5916 1.37695 40.272C1.77684 40.5719 2.07676 40.7858 2.35968 41.0157C3.84992 42.2779 5.68517 43.063 7.62721 43.269C10.1819 43.5255 12.6508 44.3321 14.8642 45.6333C19.4437 48.182 24.2982 50.2017 29.3342 51.6534C33.8688 52.9952 38.564 53.7179 43.2923 53.8017C46.365 53.7313 49.4249 53.3826 52.4347 52.76C55.7864 52.0997 59.0589 51.0875 62.198 49.74L63.2977 49.3121L63.4357 49.5551Z" fill="black"/>
<path d="M86.0041 30.5543C85.385 30.3285 84.788 30.0464 84.2206 29.7115C82.46 28.4599 80.6836 27.2183 79.022 25.8368C75.394 22.8107 71.944 19.5637 68.0251 16.9016C63.7565 13.851 59.0622 11.4453 54.093 9.76182C53.4931 9.57387 52.9163 9.33495 52.3355 9.10202C52.2505 9.06803 52.2035 8.93807 52.0195 8.69515C52.3948 8.64375 52.774 8.62769 53.1522 8.64718C56.6774 9.33339 60.064 10.6009 63.1734 12.398C69.0699 15.6414 74.4802 19.699 79.2449 24.4512C81.2128 26.4327 83.3721 28.2145 85.6912 29.7705C85.8652 29.9025 86.0274 30.0493 86.176 30.2094L86.0041 30.5543Z" fill="black"/>
<path d="M45.7891 0.474772C47.2454 0.126271 48.7627 0.119772 50.2219 0.45578C53.8205 1.32906 57.3169 2.57931 60.6533 4.18583C62.6788 5.0856 64.6843 6.04837 66.6518 7.07911C68.4388 8.00224 70.0408 9.2463 71.3776 10.7492C71.0536 10.6387 70.7398 10.5002 70.4398 10.3353C65.9392 7.42961 61.1391 5.01634 56.1225 3.1371C53.8862 2.29611 51.6081 1.571 49.2972 0.964639C48.1402 0.722463 46.9681 0.558807 45.7891 0.474772Z" fill="black"/>
<path d="M11.6152 48.0377C12.757 47.936 13.9029 48.1798 14.9044 48.7375C17.2148 49.6882 19.4713 50.795 21.8317 51.5918C24.8389 52.6085 27.9301 53.3813 30.9814 54.2601C31.4163 54.3861 31.8511 54.512 32.281 54.66C32.351 54.685 32.381 54.8349 32.464 55.0119C31.8535 55.2901 31.1583 55.3181 30.5275 55.0899C25.6224 54.1019 20.8598 52.5056 16.35 50.3381C14.7691 49.5789 13.1908 48.8121 11.6152 48.0377Z" fill="black"/>
<path d="M15.2968 11.2286C13.9724 12.3825 12.7288 13.626 11.5748 14.9504C10.6931 16.0751 9.84431 17.2267 9.00754 18.3873C8.90058 18.885 8.66947 19.3475 8.33572 19.7319C7.88284 20.2408 7.43597 20.7556 6.9921 21.2694C6.66619 21.7453 6.32928 22.2141 6.00737 22.692C4.41518 25.154 2.46035 27.3616 0.208984 29.2399C0.361646 29.4025 0.495774 29.5815 0.608882 29.7738C2.02761 28.755 3.28731 27.5314 4.34684 26.1429C6.24631 23.5967 8.01582 20.9525 9.84531 18.3553C11.3189 16.1259 13.0746 14.0963 15.0688 12.3172C15.6575 11.9071 16.1077 11.3276 16.3595 10.6558C15.9853 10.8071 15.6289 10.9992 15.2968 11.2286Z" fill="black"/>
<path d="M61.0859 53.5122C60.6437 53.7321 60.1875 53.9229 59.7203 54.0831C56.0592 55.0898 52.4411 56.2645 48.6171 56.5824C45.5578 56.806 42.4834 56.6981 39.4474 56.2605C39.0527 56.1962 38.6771 56.0453 38.3477 55.8186C42.1567 55.7297 45.9537 56.0716 49.7508 55.6397C53.5828 55.2048 57.2479 54.0071 61.0859 53.5122Z" fill="black"/>
<path d="M84.6169 36.5923C82.8404 39.4426 73.0258 45.67 69.9746 46.2389C74.5135 43.1786 79.1153 40.0734 83.7262 36.9782C84.0106 36.8224 84.3087 36.6932 84.6169 36.5923Z" fill="black"/>
<path d="M90.7834 39.9479C91.0984 40.0389 91.4164 40.1219 91.7324 40.2109C91.7554 40.1839 91.7704 40.1549 91.7944 40.1299C92.1887 39.7161 92.6057 39.3245 93.0434 38.9569C91.9064 38.7099 90.7434 38.4569 89.5104 38.1909C89.476 38.3902 89.4818 38.5943 89.5275 38.7913C89.5731 38.9883 89.6578 39.1741 89.7764 39.3378C89.8951 39.5016 90.0453 39.6399 90.2182 39.7447C90.3912 39.8495 90.5833 39.9186 90.7834 39.9479Z" fill="black"/>
<path d="M15.3477 60.1906C15.5927 59.8757 15.8366 59.5607 16.0825 59.2468C17.2752 57.7222 18.7229 56.3785 19.4617 54.521C17.684 56.2413 16.0032 58.059 14.427 59.9656L14.418 60.0416C14.7279 60.0923 15.0378 60.1419 15.3477 60.1906Z" fill="black"/>
<path d="M45.5181 5.1136C42.2589 5.42252 39.0198 5.42652 35.8456 6.16534C32.6994 6.89815 29.5471 7.61797 26.293 8.36978C26.5039 7.71195 27.0848 7.63796 27.5467 7.47C30.114 6.54106 32.7564 5.83431 35.4447 5.35754C37.9581 4.87242 40.5188 4.67653 43.0767 4.77369C43.8895 4.81368 44.7043 4.99563 45.5181 5.1136Z" fill="black"/>
<path d="M31.5331 9.41211C30.9416 9.96639 30.2143 10.3547 29.4246 10.5378C25.5646 12.2134 21.6906 13.86 18.4154 16.5963C16.8438 17.9093 15.2695 19.217 13.6926 20.5193C13.3117 20.8332 12.8978 21.1062 12.3359 21.5191C14.5044 17.5621 27.1182 9.64505 31.5331 9.41211Z" fill="black"/>
<path d="M52.5547 5.58417C52.9416 5.40363 53.3634 5.31006 53.7904 5.31006C54.2173 5.31006 54.6391 5.40363 55.0261 5.58417C56.1201 5.89269 57.1926 6.27343 58.2362 6.72389C60.9282 7.93891 63.6019 9.19426 66.2572 10.4899C67.7888 11.2415 69.1392 12.3162 70.2152 13.6401C64.7509 10.1113 58.8016 7.39743 52.5547 5.58417Z" fill="black"/>
<path d="M34.6862 0.897461L32.4757 1.68227C28.8053 3.03329 25.2702 4.72701 21.9174 6.74099C21.1383 7.22983 20.2758 7.5708 19.373 7.74675C19.508 7.48981 19.573 7.1359 19.7879 6.98994C20.9567 6.09963 22.1935 5.30239 23.487 4.60554C26.3242 3.18287 29.3076 2.07295 32.3848 1.29537C33.1496 1.11942 33.9374 1.04844 34.7152 0.929466L34.6862 0.897461Z" fill="black"/>
<path d="M74.6602 13.6245C76.1656 14.1449 77.4801 15.1055 78.4332 16.3818C78.9338 16.9277 79.3854 17.5164 79.7829 18.1414C80.9056 19.9219 81.9553 21.7495 83.091 23.522C84.2267 25.2946 85.4165 27.0011 86.5982 28.7607C86.2033 28.6478 85.8359 28.4548 85.5189 28.1937C85.2019 27.9326 84.9421 27.609 84.7556 27.2431C83.332 25.1156 81.8723 23.0012 80.6197 20.7727C79.3004 18.3088 77.5136 16.1256 75.359 14.3453C75.1106 14.1206 74.8771 13.8798 74.6602 13.6245Z" fill="black"/>
<path d="M72.2303 8.29834C72.1663 8.37134 72.0303 8.37934 71.5703 8.54634L72.2303 8.29834Z" fill="black"/>
<path d="M76.9169 45.3374C75.1374 47.3289 67.1364 51.103 63.2754 51.8138C63.6253 51.5139 63.7752 51.3139 63.9752 51.2309C68.1473 49.6066 72.2052 47.7027 76.1212 45.5323C76.3799 45.4433 76.6463 45.378 76.9169 45.3374Z" fill="black"/>
<path d="M13.6465 17.2461C16.4892 14.317 19.7621 11.8385 23.352 9.896L23.552 10.1619L13.9174 17.5371L13.6465 17.2461Z" fill="black"/>
<path d="M10.1847 10.7588L13.1189 8.56934C11.7039 10.4788 10.0411 12.1914 8.17419 13.662L7.90625 13.4271L9.59183 11.2876" fill="black"/>
<path d="M24.871 60.3974C24.999 60.3974 25.127 60.3974 25.256 60.3974C25.841 59.2524 26.41 58.0974 26.944 56.9224C26.193 58.0534 25.502 59.2224 24.834 60.4004C24.847 60.4044 24.858 60.3974 24.871 60.3974Z" fill="black"/>
<path d="M3.06055 29.2981C4.75797 27.6281 6.74699 26.2832 8.92908 25.3301C8.51018 26.3708 8.12928 26.8297 6.62966 27.7775C5.61176 28.6184 4.37213 29.1465 3.06055 29.2981Z" fill="black"/>
<path d="M81.9497 14.6514C83.7008 16.195 84.9916 18.1923 85.6797 20.4229C84.1511 19.4771 83.4033 18.0005 82.4805 16.6968C82.2274 16.4279 82.0461 16.0995 81.9534 15.742C81.8606 15.3846 81.8593 15.0095 81.9497 14.6514Z" fill="black"/>
<path d="M47.4355 8.6852L38.1758 9.40602C40.2483 8.06435 44.8991 7.74544 47.4355 8.6852Z" fill="black"/>
<path d="M78.6523 13.6909C80.9049 15.9415 82.8378 18.4907 84.3969 21.267C83.3452 20.6262 79.6911 15.8834 78.6523 13.6909Z" fill="black"/>
<path d="M91.8756 44.4913C91.7976 44.4003 91.7336 44.3003 91.6646 44.2024L86.9238 42.3608C88.3618 43.3298 89.9168 44.1125 91.5517 44.6903C91.6646 44.6243 91.7756 44.5553 91.8756 44.4913Z" fill="black"/>
<path d="M16.3965 7.93586C17.7789 6.29074 19.5299 4.99495 21.5072 4.15381C21.0963 4.85363 21.0973 4.85363 20.0836 5.50247C19.4627 5.90237 18.8329 6.28528 18.217 6.69118C17.6012 7.09708 17.0063 7.51997 16.3965 7.93586Z" fill="black"/>
<path d="M5.47656 48.9077C6.11514 48.4513 6.86358 48.173 7.64516 48.1011C8.42674 48.0293 9.21337 48.1665 9.92445 48.4988C8.23487 49.0846 6.81323 48.7387 5.47656 48.9077Z" fill="black"/>
<path d="M34.7165 0.929724C36.3211 0.311274 38.0323 0.016997 39.7513 0.0639291C38.1641 0.778069 36.4179 1.06547 34.6855 0.897719L34.7165 0.929724Z" fill="black"/>
<path d="M17.1451 52.8633C17.0017 53.4088 16.7479 53.9191 16.3994 54.3627C16.0509 54.8063 15.6152 55.1737 15.1191 55.4423C15.2599 54.8956 15.5126 54.384 15.8614 53.9401C16.2101 53.4961 16.6473 53.1295 17.1451 52.8633Z" fill="black"/>
<path d="M9.58809 46.2521C8.83917 46.8345 7.90138 47.1194 6.95508 47.0521C7.49008 46.0241 7.61809 45.9821 9.58809 46.2521Z" fill="black"/>
<path d="M76.8555 19.1831C77.8558 19.699 78.6786 20.5029 79.2175 21.4911C78.1665 21.1921 77.6745 20.7431 76.8555 19.1831Z" fill="black"/>
<path d="M75.7741 40.2495C74.9741 41.2075 73.8001 41.4415 72.4551 42.1015C73.3989 41.2216 74.5505 40.5955 75.8021 40.2815L75.7741 40.2495Z" fill="black"/>
<path d="M50.2316 5.67737C49.849 5.81125 49.4356 5.83071 49.042 5.73339C48.6485 5.63606 48.2918 5.42617 48.0156 5.12937C48.3898 4.94205 48.8185 4.89432 49.2247 4.99477C49.6309 5.09522 49.9879 5.33726 50.2316 5.67737Z" fill="black"/>
<path d="M57.23 33.4746C55.6474 38.5833 47.2665 42.3504 44.5332 40.8807C44.96 40.515 45.5116 40.3284 46.0728 40.3599C47.9981 40.1501 49.8616 39.5552 51.5523 38.6106C53.243 37.6659 54.7264 36.3909 55.9143 34.8613C56.2473 34.4404 56.6512 34.0815 57.23 33.4746Z" fill="black"/>
<path d="M32.1562 34.7788C35.2775 37.4311 38.5256 39.8415 42.9535 41.0032C38.7806 41.3761 33.292 37.814 32.1562 34.7788Z" fill="black"/>
<path d="M47.5692 37.834C47.3496 38.0973 47.0632 38.2967 46.7402 38.4114C46.4171 38.5261 46.0691 38.5518 45.7326 38.4859C42.7849 38.2859 39.9026 37.5244 37.2408 36.2424C35.7848 35.5129 34.5866 34.3559 33.8066 32.9263C34.4856 33.0365 35.0951 33.4065 35.5062 33.958C37.5327 35.8923 40.1083 37.1517 42.8794 37.5631C43.8281 37.7051 44.7899 37.7631 45.7476 37.828C46.2485 37.863 46.7554 37.834 47.5692 37.834Z" fill="black"/>
<path d="M30.0282 31.9273C28.763 30.4415 27.9327 28.6352 27.6288 26.7076C27.5538 26.4252 27.5591 26.1275 27.644 25.8479C27.729 25.5683 27.8902 25.3179 28.1097 25.125C28.2486 25.208 28.4706 25.265 28.4956 25.368C29.0184 27.5514 29.5213 29.7398 30.0282 31.9273Z" fill="black"/>
<path d="M36.6244 33.1547C35.0168 33.1277 34.45 31.896 33.8471 30.8263C33.4189 30.2343 33.1295 29.5535 33.0004 28.8344C32.8713 28.1153 32.9058 27.3763 33.1013 26.6724C33.5452 27.8869 34.0504 29.0781 34.6149 30.2415C35.2299 31.2493 35.9008 32.2219 36.6244 33.1547Z" fill="black"/>
<path d="M35.5092 35.9871C32.8928 34.6395 30.2105 31.0534 29.8926 28.2891C30.8433 29.8017 31.5922 31.1553 32.5019 32.395C33.4117 33.6347 34.4734 34.7634 35.5092 35.9871Z" fill="black"/>
<path d="M52.3732 33.6831C50.3817 36.1335 47.5204 37.3682 45.041 36.7683C45.9408 36.5354 46.5536 36.4014 47.1475 36.2195C47.7976 36.0271 48.4373 35.8012 49.064 35.5426C49.6334 35.2911 50.1878 35.007 50.7246 34.6919C51.2885 34.3749 51.8253 34.021 52.3732 33.6831Z" fill="black"/>
<path d="M53.4004 31.2051L51.3914 33.4261L51.1074 33.1741C51.3224 32.7221 51.7974 32.4681 52.1334 32.1071C52.4694 31.7461 52.8124 31.3671 53.1514 30.9961L53.4004 31.2051Z" fill="black"/>
<path d="M53.087 21.6677C52.73 20.8907 52.374 20.1137 51.916 19.1157C53.015 19.8147 53.015 19.8147 53.087 21.6677Z" fill="black"/>
</svg>
