<svg width="19" height="23" viewBox="0 0 19 23" fill="none" xmlns="http://www.w3.org/2000/svg">
<g id="SVG">
<path id="Vector" d="M17.831 12.2161C16.183 11.8241 13.631 11.1161 12.225 9.82711C10.547 8.28411 9.68001 3.72711 9.23101 1.14811C9.21774 1.08205 9.18181 1.0227 9.12942 0.980321C9.07703 0.937946 9.01148 0.915207 8.94411 0.916038C8.87673 0.916868 8.81176 0.941215 8.76043 0.984869C8.70911 1.02852 8.67465 1.08874 8.66301 1.15511C8.26301 3.80111 7.39601 8.58011 5.48201 10.2071C3.92531 11.2739 2.14775 11.9754 0.282009 12.2591C0.218052 12.2714 0.160365 12.3055 0.118875 12.3557C0.0773853 12.4059 0.0546875 12.469 0.0546875 12.5341C0.0546875 12.5992 0.0773853 12.6623 0.118875 12.7125C0.160365 12.7627 0.218052 12.7969 0.282009 12.8091C1.94501 13.1941 4.55001 13.9601 6.07201 15.4841C7.50701 16.9241 8.24401 20.4681 8.62501 22.6781C8.63828 22.7442 8.67421 22.8035 8.7266 22.8459C8.77899 22.8883 8.84454 22.911 8.91191 22.9102C8.97929 22.9093 9.04426 22.885 9.09558 22.8413C9.14691 22.7977 9.18137 22.7375 9.19301 22.6711C9.54101 20.4711 10.236 16.9281 11.649 15.4841C13.23 13.8711 16.086 13.1161 17.831 12.7651C17.8936 12.7514 17.9497 12.7167 17.9898 12.6668C18.03 12.6169 18.0519 12.5547 18.0519 12.4906C18.0519 12.4265 18.03 12.3644 17.9898 12.3144C17.9497 12.2645 17.8936 12.2298 17.831 12.2161Z" fill="white"/>
</g>
</svg>
