<svg width="13" height="16" viewBox="0 0 13 16" fill="none" xmlns="http://www.w3.org/2000/svg">
<g id="SVG">
<path id="Vector" d="M12.0815 8.21419C10.7145 7.94175 9.43277 7.34578 8.34348 6.47619C7.22448 5.35419 6.64348 2.04119 6.34348 0.164189C6.33942 0.116315 6.31738 0.071755 6.28178 0.0394814C6.24619 0.00720781 6.19969 -0.0103829 6.15165 -0.00974907C6.10361 -0.00911528 6.05759 0.00969595 6.02286 0.0428973C5.98813 0.0760986 5.96727 0.121224 5.96448 0.169189C5.70048 2.09319 5.11948 5.56919 3.84348 6.75319C2.82385 7.52162 1.63443 8.03367 0.375478 8.24619C0.332014 8.25861 0.293778 8.28484 0.266556 8.32093C0.239335 8.35701 0.224609 8.40099 0.224609 8.44619C0.224609 8.49139 0.239335 8.53536 0.266556 8.57145C0.293778 8.60754 0.332014 8.63377 0.375478 8.64619C1.81495 8.93239 3.14934 9.60512 4.23548 10.5922C5.19248 11.6392 5.68348 14.2172 5.93548 15.8242C5.93954 15.8721 5.96158 15.9166 5.99717 15.9489C6.03277 15.9812 6.07926 15.9988 6.12731 15.9981C6.17535 15.9975 6.22137 15.9787 6.25609 15.9455C6.29082 15.9123 6.31169 15.8672 6.31448 15.8192C6.54648 14.2192 7.01448 11.6422 7.95148 10.5922C9.1072 9.55155 10.5376 8.86497 12.0725 8.61419C12.1163 8.60279 12.1551 8.57742 12.1832 8.54195C12.2112 8.50647 12.227 8.46281 12.228 8.41759C12.229 8.37236 12.2153 8.32804 12.1888 8.29134C12.1624 8.25463 12.1247 8.22755 12.0815 8.21419Z" fill="#936D42"/>
</g>
</svg>
