<svg width="210" height="175" viewBox="0 0 210 175" fill="none" xmlns="http://www.w3.org/2000/svg">
<path d="M209.908 8.74286C209.231 12.751 208.482 16.7591 207.894 20.785C205.043 39.739 202.245 58.693 199.429 77.647C196.773 95.5143 194.136 113.399 191.462 131.267C189.591 143.808 187.755 156.366 185.813 168.89C185.082 173.646 181.339 175.944 176.83 174.412C146.568 164.098 116.324 153.748 86.0795 143.398C86.0261 143.38 85.9726 143.327 85.6518 143.131C114.969 107.824 144.269 72.5344 173.551 37.2629L173.177 36.8888C171.804 38.0467 170.432 39.2046 169.06 40.3625C132.881 71.2874 96.7194 102.194 60.576 133.137C59.5423 134.028 58.6868 134.099 57.4571 133.672C40.0626 127.686 22.6503 121.718 5.22021 115.804C2.27955 114.807 0.372573 112.972 0.123062 109.837C-0.108626 106.684 1.54883 104.617 4.29345 103.192C55.7462 76.3465 107.181 49.501 158.634 22.6377C172 15.6725 185.349 8.68942 198.716 1.72419C204.134 -1.0904 206.985 -0.235334 209.908 5.03758V8.72505V8.74286Z" fill="#7A75EF"/>
</svg>
