<svg width="94" height="61" viewBox="0 0 94 61" fill="none" xmlns="http://www.w3.org/2000/svg">
<path d="M93.1008 33.4173C89.8743 32.7179 86.7181 31.7261 83.6715 30.4542C82.7152 30.0906 81.8219 29.5792 81.0242 28.9387C78.9618 27.2393 76.8644 25.5738 74.7719 23.9073C72.9474 22.4538 71.073 21.0662 69.2905 19.5587C66.4972 17.1914 63.6341 14.9541 60.127 13.7245C58.5175 13.1597 56.9059 12.5889 55.2674 12.117C50.7408 10.947 46.0647 10.4608 41.3942 10.6745C33.5903 10.7287 26.0017 13.2401 19.7063 17.8522C17.268 19.6187 14.9306 21.5381 12.6543 23.5114C9.08713 26.5984 5.34063 29.4719 1.43437 32.1167C1.20587 32.2785 1.00009 32.4701 0.822543 32.6865C0.701644 33.0497 0.504265 33.3828 0.243709 33.6632C0.218716 33.6892 0.197722 33.7162 0.174728 33.7422C0.101078 33.9258 0.047778 34.1169 0.0157759 34.312C0.0433429 34.5429 0.0413153 34.7764 0.00976562 35.0068C0.0929816 35.4599 0.304384 35.8797 0.618895 36.2163C0.933406 36.553 1.33785 36.7924 1.78428 36.9062C2.2242 37.013 2.67024 37.0928 3.11991 37.1451C3.85085 37.2054 4.5704 37.3634 5.25931 37.615C7.01555 38.4238 8.69265 39.3943 10.2689 40.5141C12.0462 41.8361 13.9094 43.0384 15.8464 44.113C18.8638 45.9398 22.1203 47.3387 25.5227 48.2696C28.5438 49.0544 31.485 50.169 34.5801 50.6689C37.1417 51.2228 39.7663 51.429 42.383 51.2817C43.6826 51.1417 44.9822 50.9698 46.2819 50.8658C48.7151 50.6189 51.1084 50.0712 53.4069 49.2353C53.5541 49.1582 53.6888 49.0595 53.8068 48.9424C52.2072 49.1004 50.7306 49.5073 49.23 49.7872C45.1404 50.552 40.9579 50.6869 36.8275 50.187C30.9792 49.5751 25.3222 47.753 20.2161 44.8367C15.8014 42.2445 11.4536 39.5384 7.0818 36.8702C6.95883 36.7953 6.89685 36.6203 6.78188 36.4594C7.73057 35.0285 8.13721 33.3059 7.92856 31.6019C13.478 28.3579 25.1868 22.2338 26.3035 22.0209C26.2143 22.3542 26.1031 22.6811 25.9705 22.9996C25.4115 24.1929 25.1985 25.5191 25.3557 26.8274C25.4224 27.5638 25.4847 28.3013 25.5427 29.0397C25.8028 31.4295 26.736 33.6964 28.2339 35.5766C30.4741 38.4759 33.4306 40.7419 36.8125 42.1516C40.2768 43.8212 44.1861 44.3329 47.9634 43.6111C51.8595 42.9014 55.3966 40.883 57.9896 37.8899C60.6559 34.8569 61.5886 31.216 62.0045 27.3872C62.0932 25.7999 62.0815 24.2086 61.9695 22.6227C61.9635 22.3148 61.9075 22.0079 61.8515 21.4831C69.0606 24.9834 76.0695 28.8819 82.8457 33.1604C82.7462 33.4018 82.6243 33.6334 82.4818 33.8522C80.7483 36.187 78.6005 38.1835 76.1456 39.7423C75.9859 39.8641 75.8474 40.0113 75.7357 40.1782C76.6786 40.0483 77.5596 39.634 78.261 38.9906C80.4793 37.4301 82.8207 35.9915 84.2893 33.5923C85.9728 33.9841 87.4214 35.0528 89.132 34.7569C90.6465 34.496 92.417 35.3567 93.7956 33.7572C93.5765 33.6201 93.3436 33.5062 93.1008 33.4173ZM5.9801 36.4024C4.99738 36.1964 4.10563 36.0735 3.25486 35.8156C2.33512 35.5367 2.0732 35.1328 2.0992 34.385C2.07982 34.0425 2.18098 33.704 2.38514 33.4282C2.58931 33.1525 2.88358 32.9569 3.21688 32.8755C4.40555 32.5486 5.60421 32.2587 6.94083 31.9168C7.09095 33.4753 6.75538 35.0421 5.9801 36.4024ZM23.5972 18.675C21.1753 20.0332 18.9376 21.6966 16.9391 23.6244C15.8275 24.5883 14.6373 25.4577 13.381 26.2236C13.2068 26.3216 13.0228 26.4013 12.8322 26.4615C16.1733 23.1246 19.6893 20.0755 24.1221 18.2461C23.9586 18.4026 23.7831 18.546 23.5972 18.675ZM49.7699 13.8215C43.4103 13.4983 37.0363 14.0438 30.8242 15.443C36.8666 13.1549 43.4265 12.5935 49.7699 13.8215ZM58.8014 33.4873C57.7613 35.6247 56.2431 37.4939 54.3643 38.9501C52.4855 40.4063 50.2967 41.4105 47.9674 41.8847C44.0485 42.8264 40.3985 41.9226 36.8885 40.2102C33.9149 38.8687 31.3569 36.752 29.4826 34.0821C28.3869 32.4813 27.6598 30.6576 27.3535 28.7422C27.0472 26.8267 27.1693 24.8672 27.711 23.0046C27.7839 22.6682 27.917 22.3479 28.1039 22.0589V23.9583C29.1936 22.7737 28.6208 21.0452 30.1084 19.8756C29.6845 21.728 29.2576 23.2665 29.7525 25.0859C29.8894 24.5601 29.9934 24.2322 30.0584 23.8963C30.2883 22.7257 30.4813 21.5481 30.7392 20.3824C30.8322 19.9576 31.0091 19.4957 31.7769 19.6247C30.9232 21.9479 30.4933 24.2812 31.564 26.6604C31.5218 25.9991 31.5271 25.3356 31.58 24.6751C31.8109 23.1046 32.1018 21.5431 32.4167 19.9875C32.4221 19.8574 32.4551 19.7299 32.5137 19.6136C32.5723 19.4973 32.655 19.3948 32.7564 19.3131C32.8577 19.2313 32.9754 19.1721 33.1015 19.1395C33.2275 19.1068 33.3591 19.1015 33.4874 19.1238C33.2695 19.7756 33.0256 20.3694 32.8786 20.9872C32.7191 21.648 32.6134 22.3207 32.5627 22.9986C32.3927 23.6628 32.4275 24.3629 32.6627 25.007C33.4235 24.6921 33.3685 24.0923 33.4684 23.4855C33.6062 26.341 34.7645 29.0523 36.7325 31.126C37.8665 32.3052 39.3019 33.1512 40.8828 33.5723C42.4637 33.9933 44.1297 33.9733 45.7 33.5143C51.1675 32.2337 52.6271 28.1 52.7131 23.7174C52.7491 21.9259 51.7474 20.3584 50.8576 18.8299C50.7311 18.6383 50.5932 18.4543 50.4447 18.2791C52.0023 17.9152 52.3862 18.0532 53.091 19.1958C53.8946 20.4461 54.4007 21.864 54.5706 23.3405C54.6146 23.7714 54.7375 24.1942 54.8905 24.94C55.2324 22.7507 55.1984 22.5867 53.6548 18.542L55.2774 18.9419C55.5093 19.8276 55.7083 20.5844 55.9062 21.3411L56.1881 21.3001C56.1311 20.6763 56.0751 20.0535 56.0122 19.3517C56.576 19.2628 56.663 19.6726 56.751 20.0345C57.3508 22.5337 57.8507 25.042 57.2008 27.6201C57.0875 28.0489 57.0537 28.4948 57.1009 28.9357C58.6634 26.0786 58.2945 23.1146 57.5437 20.1195C59.3942 23.1915 59.1663 26.5175 58.7294 29.8904C59.6433 28.5029 60.0602 26.8467 59.9121 25.1919C59.7551 23.6324 59.3462 22.0989 59.0123 20.3594C59.2725 20.5289 59.5103 20.7304 59.7201 20.9592C60.2876 21.8205 60.6119 22.819 60.6589 23.8493C60.859 27.167 60.2202 30.4816 58.8014 33.4873Z" fill="black"/>
<path d="M63.3458 49.4911C63.0549 49.65 62.769 49.82 62.4721 49.9679C58.0405 52.1955 53.2618 53.6516 48.341 54.2736C43.075 54.8915 37.7418 54.5956 32.5764 53.3989C26.7061 52.1944 21.087 49.9885 15.965 46.8779C13.4608 45.291 10.5731 44.4128 7.60935 44.3367C5.71286 44.2529 3.89856 43.5387 2.45379 42.3074C1.65401 41.6536 1.59702 41.5276 1.28711 40.208C1.687 40.5079 1.98692 40.7218 2.26984 40.9518C3.76007 42.2139 5.59533 42.999 7.53737 43.2051C10.0921 43.4616 12.561 44.2681 14.7744 45.5693C19.3539 48.1181 24.2084 50.1378 29.2443 51.5894C33.779 52.9313 38.4742 53.6539 43.2024 53.7377C46.2751 53.6673 49.3351 53.3187 52.3449 52.6961C55.6965 52.0358 58.9691 51.0235 62.1082 49.676L63.2079 49.2482L63.3458 49.4911Z" fill="black"/>
<path d="M85.9142 30.4903C85.2952 30.2646 84.6982 29.9825 84.1307 29.6476C82.3702 28.396 80.5937 27.1544 78.9322 25.7728C75.3042 22.7467 71.8541 19.4998 67.9352 16.8376C63.6667 13.787 58.9723 11.3813 54.0031 9.69785C53.4033 9.50991 52.8264 9.27098 52.2456 9.03805C52.1606 9.00407 52.1136 8.87411 51.9297 8.63118C52.3049 8.57978 52.6841 8.56373 53.0624 8.58321C56.5876 9.26943 59.9742 10.537 63.0836 12.334C68.98 15.5774 74.3903 19.635 79.1551 24.3872C81.123 26.3687 83.2823 28.1505 85.6013 29.7066C85.7753 29.8385 85.9375 29.9854 86.0862 30.1454L85.9142 30.4903Z" fill="black"/>
<path d="M45.6992 0.410807C47.1556 0.062306 48.6728 0.0558072 50.1321 0.391815C53.7306 1.26509 57.2271 2.51535 60.5635 4.12186C62.5889 5.02164 64.5944 5.98441 66.5619 7.01515C68.349 7.93827 69.951 9.18234 71.2878 10.6852C70.9638 10.5747 70.65 10.4362 70.35 10.2713C65.8493 7.36564 61.0493 4.95238 56.0326 3.07313C53.7964 2.23215 51.5183 1.50703 49.2073 0.900674C48.0503 0.658498 46.8783 0.494842 45.6992 0.410807Z" fill="black"/>
<path d="M11.5254 47.9737C12.6671 47.8721 13.8131 48.1159 14.8146 48.6735C17.125 49.6243 19.3814 50.731 21.7418 51.5278C24.7491 52.5445 27.8403 53.3174 30.8915 54.1961C31.3264 54.3221 31.7613 54.4481 32.1912 54.596C32.2612 54.621 32.2912 54.771 32.3741 54.9479C31.7637 55.2261 31.0685 55.2541 30.4376 55.0259C25.5325 54.0379 20.7699 52.4417 16.2602 50.2741C14.6793 49.515 13.101 48.7482 11.5254 47.9737Z" fill="black"/>
<path d="M15.2069 11.1646C13.8825 12.3186 12.6389 13.5621 11.485 14.8864C10.6032 16.0111 9.75447 17.1627 8.9177 18.3234C8.81074 18.821 8.57962 19.2836 8.24587 19.6679C7.793 20.1768 7.34613 20.6916 6.90225 21.2055C6.57635 21.6813 6.23944 22.1502 5.91753 22.628C4.32534 25.0901 2.37051 27.2976 0.119141 29.176C0.271802 29.3385 0.40593 29.5176 0.519038 29.7098C1.93776 28.691 3.19747 27.4674 4.257 26.0789C6.15647 23.5327 7.92597 20.8886 9.75546 18.2914C11.229 16.0619 12.9847 14.0323 14.979 12.2533C15.5677 11.8431 16.0178 11.2636 16.2696 10.5918C15.8954 10.7431 15.5391 10.9352 15.2069 11.1646Z" fill="black"/>
<path d="M60.9961 53.4482C60.5538 53.6682 60.0976 53.8589 59.6304 54.0191C55.9693 55.0259 52.3513 56.2006 48.5272 56.5185C45.468 56.742 42.3935 56.6341 39.3575 56.1966C38.9628 56.1323 38.5873 55.9813 38.2578 55.7547C42.0669 55.6657 45.8639 56.0076 49.6609 55.5757C53.493 55.1408 57.158 53.9431 60.9961 53.4482Z" fill="black"/>
<path d="M84.5271 36.5283C82.7505 39.3786 72.936 45.606 69.8848 46.1749C74.4236 43.1147 79.0255 40.0094 83.6363 36.9142C83.9207 36.7584 84.2189 36.6293 84.5271 36.5283Z" fill="black"/>
<path d="M90.6936 39.884C91.0086 39.975 91.3266 40.058 91.6426 40.147C91.6656 40.12 91.6806 40.0909 91.7046 40.0659C92.0989 39.6521 92.5158 39.2605 92.9536 38.893C91.8166 38.646 90.6536 38.393 89.4206 38.127C89.3861 38.3262 89.3919 38.5303 89.4376 38.7273C89.4833 38.9243 89.568 39.1101 89.6866 39.2739C89.8052 39.4376 89.9555 39.5759 90.1284 39.6807C90.3013 39.7855 90.4935 39.8546 90.6936 39.884Z" fill="black"/>
<path d="M15.2579 60.1266C15.5028 59.8117 15.7468 59.4968 15.9927 59.1829C17.1854 57.6582 18.633 56.3146 19.3719 54.457C17.5942 56.1774 15.9134 57.9951 14.3371 59.9017L14.3281 59.9776C14.638 60.0283 14.948 60.078 15.2579 60.1266Z" fill="black"/>
<path d="M45.4283 5.04964C42.1691 5.35856 38.9299 5.36256 35.7557 6.10137C32.6095 6.83419 29.4573 7.55401 26.2031 8.30582C26.4141 7.64799 26.9949 7.574 27.4568 7.40604C30.0242 6.47709 32.6665 5.77035 35.3548 5.29358C37.8683 4.80845 40.4289 4.61256 42.9869 4.70973C43.7997 4.74972 44.6145 4.93167 45.4283 5.04964Z" fill="black"/>
<path d="M31.4433 9.34814C30.8518 9.90242 30.1244 10.2907 29.3348 10.4739C25.4748 12.1494 21.6007 13.796 18.3256 16.5323C16.754 17.8453 15.1797 19.153 13.6028 20.4553C13.2219 20.7693 12.808 21.0422 12.2461 21.4551C14.4145 17.4981 27.0284 9.58109 31.4433 9.34814Z" fill="black"/>
<path d="M52.4648 5.52021C52.8518 5.33966 53.2735 5.24609 53.7005 5.24609C54.1275 5.24609 54.5493 5.33966 54.9362 5.52021C56.0303 5.82872 57.1027 6.20946 58.1464 6.65992C60.8384 7.87495 63.5121 9.1303 66.1674 10.426C67.699 11.1775 69.0493 12.2523 70.1254 13.5762C64.6611 10.0473 58.7117 7.33346 52.4648 5.52021Z" fill="black"/>
<path d="M34.5963 0.833496L32.3859 1.6183C28.7154 2.96933 25.1804 4.66304 21.8276 6.67703C21.0485 7.16587 20.1859 7.50683 19.2832 7.68278C19.4182 7.42585 19.4831 7.07193 19.6981 6.92597C20.8669 6.03566 22.1037 5.23842 23.3972 4.54158C26.2343 3.1189 29.2178 2.00898 32.2949 1.23141C33.0597 1.05545 33.8475 0.984471 34.6253 0.865501L34.5963 0.833496Z" fill="black"/>
<path d="M74.5703 13.5605C76.0758 14.081 77.3903 15.0416 78.3433 16.3179C78.8439 16.8637 79.2956 17.4525 79.693 18.0774C80.8157 19.858 81.8655 21.6855 83.0012 23.4581C84.1369 25.2306 85.3266 26.9372 86.5083 28.6967C86.1135 28.5838 85.7461 28.3908 85.4291 28.1297C85.1121 27.8686 84.8523 27.545 84.6658 27.1791C83.2421 25.0517 81.7825 22.9372 80.5298 20.7088C79.2106 18.2448 77.4237 16.0616 75.2691 14.2814C75.0207 14.0566 74.7873 13.8158 74.5703 13.5605Z" fill="black"/>
<path d="M72.1405 8.23438C72.0765 8.30737 71.9405 8.31538 71.4805 8.48238Z" fill="black"/>
<path d="M76.8271 45.2734C75.0475 47.2649 67.0466 51.039 63.1855 51.7498C63.5355 51.4499 63.6854 51.2499 63.8854 51.167C68.0575 49.5426 72.1154 47.6388 76.0313 45.4684C76.2901 45.3793 76.5565 45.3141 76.8271 45.2734Z" fill="black"/>
<path d="M13.5566 17.1822C16.3994 14.253 19.6722 11.7745 23.2622 9.83203L23.4622 10.098L13.8276 17.4731L13.5566 17.1822Z" fill="black"/>
<path d="M10.0948 10.6948L13.0291 8.50537C11.6141 10.4148 9.95125 12.1274 8.08434 13.5981L7.81641 13.3631L9.50199 11.2237" fill="black"/>
<path d="M24.7811 60.3334C24.9091 60.3334 25.0371 60.3334 25.1661 60.3334C25.7511 59.1884 26.3201 58.0334 26.8541 56.8584C26.1031 57.9894 25.4121 59.1584 24.7441 60.3364C24.7571 60.3404 24.7681 60.3334 24.7811 60.3334Z" fill="black"/>
<path d="M2.9707 29.2341C4.66813 27.5642 6.65715 26.2193 8.83924 25.2661C8.42034 26.3069 8.03943 26.7657 6.53981 27.7135C5.52191 28.5544 4.28228 29.0825 2.9707 29.2341Z" fill="black"/>
<path d="M81.8598 14.5874C83.6109 16.1311 84.9017 18.1283 85.5899 20.3589C84.0613 19.4132 83.3135 17.9365 82.3907 16.6329C82.1376 16.3639 81.9563 16.0356 81.8635 15.6781C81.7707 15.3206 81.7694 14.9455 81.8598 14.5874Z" fill="black"/>
<path d="M47.3456 8.62124L38.0859 9.34205C40.1584 8.00039 44.8093 7.68148 47.3456 8.62124Z" fill="black"/>
<path d="M78.5625 13.627C80.815 15.8775 82.7479 18.4267 84.3071 21.203C83.2553 20.5622 79.6012 15.8194 78.5625 13.627Z" fill="black"/>
<path d="M91.7857 44.4273C91.7078 44.3364 91.6438 44.2364 91.5748 44.1384L86.834 42.2969C88.2719 43.2658 89.8269 44.0486 91.4618 44.6263C91.5748 44.5603 91.6858 44.4913 91.7857 44.4273Z" fill="black"/>
<path d="M16.3066 7.8719C17.689 6.22677 19.44 4.93099 21.4174 4.08984C21.0065 4.78967 21.0075 4.78967 19.9937 5.4385C19.3729 5.8384 18.743 6.22132 18.1272 6.62721C17.5113 7.03311 16.9165 7.456 16.3066 7.8719Z" fill="black"/>
<path d="M5.38672 48.8437C6.0253 48.3874 6.77374 48.109 7.55532 48.0371C8.3369 47.9653 9.12352 48.1025 9.8346 48.4348C8.14503 49.0206 6.72338 48.6747 5.38672 48.8437Z" fill="black"/>
<path d="M34.6267 0.865759C36.2312 0.247309 37.9425 -0.0469678 39.6614 -3.57623e-05C38.0742 0.714104 36.3281 1.00151 34.5957 0.833754L34.6267 0.865759Z" fill="black"/>
<path d="M17.0553 52.7993C16.9118 53.3449 16.658 53.8552 16.3096 54.2988C15.9611 54.7424 15.5254 55.1098 15.0293 55.3783C15.17 54.8316 15.4228 54.32 15.7715 53.8761C16.1203 53.4322 16.5574 53.0655 17.0553 52.7993Z" fill="black"/>
<path d="M9.49825 46.1881C8.74933 46.7705 7.81154 47.0554 6.86523 46.9881C7.40023 45.9601 7.52825 45.9181 9.49825 46.1881Z" fill="black"/>
<path d="M76.7656 19.1191C77.766 19.635 78.5887 20.439 79.1276 21.4272C78.0766 21.1282 77.5846 20.6791 76.7656 19.1191Z" fill="black"/>
<path d="M75.6842 40.1855C74.8842 41.1435 73.7102 41.3775 72.3652 42.0375C73.3091 41.1577 74.4606 40.5315 75.7122 40.2175L75.6842 40.1855Z" fill="black"/>
<path d="M50.1418 5.61341C49.7591 5.74728 49.3457 5.76674 48.9522 5.66942C48.5586 5.5721 48.2019 5.3622 47.9258 5.0654C48.2999 4.87808 48.7286 4.83036 49.1348 4.9308C49.541 5.03125 49.8981 5.27329 50.1418 5.61341Z" fill="black"/>
<path d="M57.1402 33.4106C55.5576 38.5194 47.1767 42.2864 44.4434 40.8168C44.8702 40.451 45.4218 40.2644 45.983 40.2959C47.9083 40.0861 49.7717 39.4912 51.4624 38.5466C53.1531 37.602 54.6366 36.3269 55.8245 34.7973C56.1574 34.3764 56.5613 34.0175 57.1402 33.4106Z" fill="black"/>
<path d="M32.0664 34.7148C35.1876 37.3672 38.4358 39.7776 42.8637 40.9393C38.6907 41.3122 33.2021 37.7501 32.0664 34.7148Z" fill="black"/>
<path d="M47.4793 37.7701C47.2597 38.0334 46.9734 38.2328 46.6503 38.3474C46.3272 38.4621 45.9792 38.4878 45.6428 38.4219C42.6951 38.2219 39.8128 37.4605 37.1509 36.1785C35.6949 35.449 34.4967 34.2919 33.7168 32.8623C34.3958 32.9725 35.0053 33.3425 35.4164 33.8941C37.4428 35.8283 40.0185 37.0877 42.7895 37.4991C43.7383 37.6411 44.7 37.6991 45.6578 37.7641C46.1587 37.7991 46.6655 37.7701 47.4793 37.7701Z" fill="black"/>
<path d="M29.9383 31.8633C28.6732 30.3775 27.8429 28.5713 27.5389 26.6436C27.4639 26.3612 27.4692 26.0635 27.5542 25.7839C27.6391 25.5043 27.8004 25.254 28.0198 25.061C28.1588 25.144 28.3807 25.201 28.4057 25.304C28.9286 27.4874 29.4315 29.6759 29.9383 31.8633Z" fill="black"/>
<path d="M36.5346 33.0908C34.927 33.0638 34.3601 31.8321 33.7573 30.7624C33.3291 30.1704 33.0397 29.4896 32.9106 28.7705C32.7814 28.0513 32.8159 27.3124 33.0115 26.6084C33.4554 27.8229 33.9606 29.0141 34.5251 30.1775C35.14 31.1853 35.8109 32.1579 36.5346 33.0908Z" fill="black"/>
<path d="M35.4193 35.9232C32.803 34.5755 30.1207 30.9894 29.8027 28.2251C30.7535 29.7377 31.5023 31.0914 32.4121 32.3311C33.3218 33.5707 34.3836 34.6995 35.4193 35.9232Z" fill="black"/>
<path d="M52.2833 33.6191C50.2918 36.0695 47.4305 37.3042 44.9512 36.7044C45.8509 36.4714 46.4638 36.3375 47.0576 36.1555C47.7077 35.9631 48.3474 35.7372 48.9742 35.4787C49.5435 35.2271 50.098 34.9431 50.6348 34.6279C51.1986 34.311 51.7355 33.9571 52.2833 33.6191Z" fill="black"/>
<path d="M53.3106 31.1411L51.3016 33.3621L51.0176 33.1101C51.2326 32.6581 51.7076 32.4041 52.0436 32.0431C52.3796 31.6821 52.7226 31.3031 53.0616 30.9321L53.3106 31.1411Z" fill="black"/>
<path d="M52.9972 21.6037C52.6402 20.8267 52.2842 20.0498 51.8262 19.0518C52.9252 19.7508 52.9252 19.7507 52.9972 21.6037Z" fill="black"/>
</svg>
